<svg xmlns="http://www.w3.org/2000/svg" xmlns:xlink="http://www.w3.org/1999/xlink" version="1.1" id="NeptuneLabs_Logo" x="0" y="0" width="3288.19" height="1445.67" viewBox="0 0 3288.19 1445.67" enable-background="new 0 0 3288.189 1445.669" xml:space="preserve"><polygon fill="#1868BD" points="299.67 352.28 299.67 726.77 196.17 726.77 196.17 216.27 335.25 216.27 538.67 596.57 538.67 216.27 642.17 216.27 642.17 726.77 508.32 726.77 "/><path fill="#1868BD" d="M1047.12 500.27v79.5H830.88c1.99 24.5 9.91 41.88 23.76 52.13s36.23 15.38 67.16 15.38h125.33v79.5H910.57c-29.67 0-53.79-2.62-72.36-7.85s-36.2-14.22-52.91-26.94c-45.12-34.91-67.68-87.04-67.68-156.38 0-45.39 11.96-84.8 35.9-118.22 16.45-22.94 36.14-39.28 59.08-49.01s53.1-14.59 90.49-14.59h144.03v79.5H910.57c-27.94 0-47.58 4.77-58.92 14.31 -11.35 9.54-18.27 27.1-20.77 52.7H1047.12z"/><path fill="#1868BD" d="M1441.6 385.57c-15.97-12.47-32.93-20.88-50.88-25.25 -17.96-4.36-44.4-6.55-79.32-6.55H1131.7v513.5h103v-140.5h90.54c30.68 0 56.62-3.8 77.82-11.41s39.91-19.77 56.13-36.48c32.67-33.91 49.02-78.19 49.02-132.81C1508.2 473.99 1486 420.49 1441.6 385.57zM1370.63 625.91c-15.66 14.24-40.02 21.36-73.08 21.36H1234.7v-214h69.96c31.56 0 55.79 9.06 72.69 27.17 16.9 18.12 25.35 44.04 25.35 77.77C1402.7 577.44 1392 606.67 1370.63 625.91z"/><path fill="#1868BD" d="M1606.14 353.77v-137.5h103v137.5h94.5v79.5h-94.5v135.63c0 31.68 2.87 51.63 8.6 59.86 8.73 12.22 24.06 18.33 46.02 18.33h40.41v79.69h-74.56c-44.53 0-76.24-10.73-95.13-32.19 -18.89-21.46-28.33-57.4-28.33-107.81V433.27h-65v-79.5H1606.14z"/><path fill="#1868BD" d="M2117.82 647.27v-293.5h103v373h-201.98c-29.48 0-52.09-2.12-67.83-6.35s-29.85-12.09-42.34-23.55c-26.23-23.67-39.34-61.54-39.34-113.62V353.77h103v239.97c0 16.72 4.34 29.82 13.02 39.31 8.68 9.48 20.71 14.23 36.09 14.23H2117.82z"/><path fill="#1868BD" d="M2321.76 353.77h197.62c29.45 0 52.04 2.12 67.77 6.35 15.72 4.23 29.82 12.09 42.31 23.55 26.2 23.67 39.31 61.42 39.31 113.24v229.86h-103V485.31c0-18.47-4.09-31.76-12.25-39.87s-21.52-12.17-40.07-12.17h-88.68v293.5h-103V353.77z"/><path fill="#1868BD" d="M3069.59 500.27v79.5h-216.24c1.99 24.5 9.91 41.88 23.76 52.13s36.23 15.38 67.16 15.38h125.33v79.5H2933.03c-29.67 0-53.79-2.62-72.36-7.85s-36.2-14.22-52.91-26.94c-45.12-34.91-67.68-87.04-67.68-156.38 0-45.39 11.96-84.8 35.9-118.22 16.45-22.94 36.14-39.28 59.08-49.01s53.1-14.59 90.49-14.59h144.03v79.5H2933.03c-27.94 0-47.58 4.77-58.92 14.31 -11.35 9.54-18.27 27.1-20.77 52.7H3069.59z"/><path fill="#141515" d="M1664.08 819.21h45.25v119.45c0.63 15.19 1.3 25.28 2.03 30.27 1.45 9.68 6.11 16.31 13.97 19.9 7.86 3.59 21.67 5.38 41.45 5.38h43.56v37.75h-48.24c-22.79 0.1-39.34-1.19-49.64-3.88 -23.51-6.85-38.39-21.75-44.62-44.71 -2.39-8.83-3.64-23.73-3.75-44.71V819.21z"/><path fill="#141515" d="M2189.21 880.25c-4.99-1.58-9.95-2.61-14.89-3.09 -4.94-0.47-13.85-0.71-26.74-0.71h-72.22v33.25h72.22c12.87 0 21.5 1.9 25.91 5.69s6.62 11.15 6.62 22.06h-52.3c-16.93 0-29.02 1.3-36.29 3.9 -8.2 2.91-14.82 8.45-19.86 16.61 -5.04 8.16-7.55 17.49-7.55 27.99 0 17.16 6.33 30 19 38.52 4.67 3.12 10.09 5.15 16.27 6.08s17.32 1.4 33.41 1.4h90.32v-87.63C2224.25 910.55 2212.95 889.19 2189.21 880.25zM2180.11 998.71h-49.34c-8.36 0-14.27-1.04-17.73-3.12 -3.46-2.08-5.18-5.67-5.18-10.77 0-4.37 1.42-7.85 4.26-10.46 2.84-2.6 6.68-3.9 11.53-3.9l7.12 0.25h49.34V998.71z"/><path fill="#141515" d="M2651.98 916.39c-6.24-14.45-16.48-25.21-30.71-32.29 -10.4-5.09-23.91-7.64-40.54-7.64h-37.89v-57.25h-43v212.75h69.82c14.03 0 24.92-0.8 32.66-2.42 7.74-1.61 15.15-4.6 22.22-8.97 22.87-14.14 34.3-36.96 34.3-68.47C2658.84 939.1 2656.55 927.2 2651.98 916.39zM2604.67 986.24c-6.64 8.31-16.7 12.47-30.18 12.47h-31.65v-89h31.65c27.07 0 40.6 14.55 40.6 43.65C2615.09 966.44 2611.61 977.41 2604.67 986.24z"/><path fill="#141515" d="M3062.29 876.46v33.25h-75.82c-8.66 0-14.18 0.41-16.58 1.24 -4.9 1.66-7.35 5.81-7.35 12.43 0 5.49 2.34 9.69 7.04 12.59 2.5 1.66 9.43 2.49 20.79 2.49h25.27c16.14 0 28.9 3.49 38.28 10.46 10.41 7.7 15.62 18.99 15.62 33.88 0 11.24-3.12 21.59-9.37 31.06 -4.79 7.29-10.57 12.13-17.34 14.52 -6.77 2.4-17.96 3.59-33.58 3.59h-88.46v-33.25h76.13c9.5 0 15.98-0.16 19.43-0.47 7.63-0.83 11.44-5.09 11.44-12.77 0-6.44-2.51-10.85-7.53-13.24 -2.72-1.35-8.99-2.02-18.82-2.02h-25.9c-10.07 0-17.84-0.62-23.29-1.87 -5.45-1.25-10.51-3.53-15.18-6.86 -5.71-4.16-10.23-9.78-13.55-16.85 -3.32-7.07-4.98-14.71-4.98-22.93 0-15.6 5.66-27.97 16.98-37.12 6.75-5.41 18.53-8.11 35.35-8.11H3062.29z"/><rect x="194.58" y="1171.44" fill="#00090D" width="7.94" height="56.38"/><path fill="#00090D" d="M265.08 1227.82v-26.63c0-1.65-0.06-3.56-0.17-5.71s-0.26-4.47-0.46-6.97h7.49l0.46 6.79c1.94-2.64 4.27-4.58 7-5.81s6.1-1.85 10.1-1.85c5.86 0 10.25 1.41 13.16 4.22 2.91 2.81 4.36 7.05 4.36 12.7v23.27h-7.5v-22.12c0-4.41-0.96-7.65-2.87-9.72s-4.9-3.1-8.95-3.1c-4.54 0-8.17 1.2-10.9 3.6s-4.09 5.61-4.09 9.64v21.7H265.08z"/><path fill="#00090D" d="M378.95 1178.13v10.38h11.38v5.25h-11.37v18.3c0 5.12 0.37 8.27 1.11 9.44s2.11 1.76 4.1 1.76c0.84 0 1.79-0.06 2.85-0.19 1.06-0.13 2.16-0.32 3.31-0.57v5.63c-1.35 0.2-2.65 0.36-3.88 0.47 -1.24 0.11-2.39 0.17-3.46 0.17 -4.34 0-7.35-0.83-9.05-2.48 -1.7-1.65-2.54-4.56-2.54-8.71v-23.81h-9.87v-5.25h9.88v-7.02L378.95 1178.13z"/><path fill="#00090D" d="M480.17 1192.81c-3.5-3.49-8.5-5.24-15-5.24 -6.85 0-12.28 1.9-16.3 5.7s-6.02 8.92-6.02 15.36c0 6.24 1.89 11.15 5.68 14.72 3.78 3.57 8.99 5.35 15.61 5.35 6.17 0 10.94-1.08 14.33-3.23s5.45-5.41 6.19-9.77h-8.06c-0.41 2.48-1.64 4.4-3.71 5.76 -2.06 1.37-4.76 2.05-8.1 2.05 -4.51 0-7.99-1.18-10.45-3.56 -2.46-2.37-3.73-5.75-3.8-10.13h34.8c0-0.23 0.01-0.57 0.04-1.01s0.04-0.78 0.04-1.01C485.42 1201.29 483.67 1196.3 480.17 1192.81zM477.67 1205.07H450.85c0.2-3.81 1.52-6.84 3.95-9.08s5.59-3.36 9.48-3.36c4.2 0 7.48 1.05 9.84 3.15s3.55 5.02 3.55 8.75V1205.07z"/><path fill="#00090D" d="M542.04 1227.82v-25.9c0-2.09-0.06-4.26-0.17-6.49 -0.11-2.23-0.29-4.54-0.52-6.92h7.7l0.38 7.38c1.4-2.81 3.41-4.9 6.02-6.26s5.96-2.05 10.04-2.05h1.42v6.94h-1.64c-5.38 0-9.33 1.19-11.84 3.55 -2.51 2.37-3.77 6.11-3.77 11.23v18.53H542.04z"/><path fill="#00090D" d="M622.28 1227.82v-26.63c0-1.65-0.06-3.56-0.17-5.71s-0.26-4.47-0.46-6.97h7.49l0.46 6.79c1.94-2.64 4.27-4.58 7-5.81s6.1-1.85 10.1-1.85c5.86 0 10.25 1.41 13.16 4.22 2.91 2.81 4.36 7.05 4.36 12.7v23.27h-7.5v-22.12c0-4.41-0.96-7.65-2.87-9.72s-4.9-3.1-8.95-3.1c-4.54 0-8.17 1.2-10.9 3.6s-4.09 5.61-4.09 9.64v21.7H622.28z"/><path fill="#00090D" d="M758.46 1192.81c-3.5-3.49-8.5-5.24-15-5.24 -6.85 0-12.28 1.9-16.3 5.7s-6.02 8.92-6.02 15.36c0 6.24 1.89 11.15 5.68 14.72 3.78 3.57 8.99 5.35 15.61 5.35 6.17 0 10.94-1.08 14.33-3.23s5.45-5.41 6.19-9.77h-8.06c-0.41 2.48-1.64 4.4-3.71 5.76 -2.06 1.37-4.76 2.05-8.1 2.05 -4.51 0-7.99-1.18-10.45-3.56 -2.46-2.37-3.73-5.75-3.8-10.13h34.8c0-0.23 0.01-0.57 0.04-1.01s0.04-0.78 0.04-1.01C763.72 1201.29 761.96 1196.3 758.46 1192.81zM755.97 1205.07h-26.82c0.2-3.81 1.52-6.84 3.95-9.08s5.59-3.36 9.48-3.36c4.2 0 7.48 1.05 9.84 3.15s3.55 5.02 3.55 8.75V1205.07z"/><path fill="#00090D" d="M831.34 1178.13v10.38h11.38v5.25H831.34v18.3c0 5.12 0.37 8.27 1.11 9.44s2.11 1.76 4.1 1.76c0.84 0 1.79-0.06 2.85-0.19 1.06-0.13 2.16-0.32 3.31-0.57v5.63c-1.35 0.2-2.65 0.36-3.88 0.47 -1.24 0.11-2.39 0.17-3.46 0.17 -4.34 0-7.35-0.83-9.05-2.48 -1.7-1.65-2.54-4.56-2.54-8.71v-23.81h-9.87v-5.25h9.88v-7.02L831.34 1178.13z"/><path fill="#00090D" d="M1004.52 1171.44h-9.71l-29.13 56.38h8.3l7.76-15.06h34.75l7.38 15.06h9.06L1004.52 1171.44zM985.03 1206.19l14.57-28.31 13.69 28.31H985.03z"/><path fill="#00090D" d="M1124.74 1193.17c-3.78-3.73-8.89-5.6-15.31-5.6 -3.44 0-6.5 0.58-9.17 1.74s-5.02 2.91-7.03 5.26l-0.46-6h-7.73c0.23 1.58 0.4 3.24 0.52 4.96 0.11 1.73 0.17 3.79 0.17 6.19v42.97h7.5v-20.3c2.22 2.15 4.65 3.75 7.3 4.8 2.65 1.05 5.57 1.57 8.75 1.57 6.45 0 11.58-1.86 15.4-5.58s5.73-8.7 5.73-14.94C1130.42 1201.92 1128.53 1196.9 1124.74 1193.17zM1118.78 1219.32c-2.64 2.71-6.27 4.06-10.91 4.06 -4.74 0-8.44-1.36-11.1-4.08 -2.66-2.72-3.99-6.51-3.99-11.37 0-4.48 1.39-8.08 4.17-10.82 2.78-2.73 6.42-4.1 10.93-4.1 4.66 0 8.31 1.33 10.93 3.99s3.94 6.35 3.94 11.09C1122.73 1212.86 1121.41 1216.61 1118.78 1219.32z"/><path fill="#00090D" d="M1227 1193.17c-3.78-3.73-8.89-5.6-15.31-5.6 -3.44 0-6.5 0.58-9.17 1.74s-5.02 2.91-7.03 5.26l-0.46-6h-7.73c0.23 1.58 0.4 3.24 0.52 4.96 0.11 1.73 0.17 3.79 0.17 6.19v42.97h7.5v-20.3c2.22 2.15 4.65 3.75 7.3 4.8 2.65 1.05 5.57 1.57 8.75 1.57 6.45 0 11.58-1.86 15.4-5.58s5.73-8.7 5.73-14.94C1232.68 1201.92 1230.78 1196.9 1227 1193.17zM1221.03 1219.32c-2.64 2.71-6.27 4.06-10.91 4.06 -4.74 0-8.44-1.36-11.1-4.08 -2.66-2.72-3.99-6.51-3.99-11.37 0-4.48 1.39-8.08 4.17-10.82 2.78-2.73 6.42-4.1 10.93-4.1 4.66 0 8.31 1.33 10.93 3.99s3.94 6.35 3.94 11.09C1224.99 1212.86 1223.67 1216.61 1221.03 1219.32z"/><rect x="1290.44" y="1171.44" fill="#00090D" width="7.5" height="56.38"/><rect x="1359.91" y="1171.44" fill="#00090D" width="7.5" height="8.13"/><rect x="1359.91" y="1188.51" fill="#00090D" width="7.5" height="39.31"/><path fill="#00090D" d="M1458.61 1214.44h7.81c-0.1 4.3-1.82 7.73-5.16 10.29s-7.8 3.84-13.39 3.84c-7.19 0-12.81-1.8-16.87-5.41s-6.08-8.61-6.08-15.01c0-6.35 2.01-11.34 6.04-14.99 4.03-3.64 9.55-5.47 16.59-5.47 5.22 0 9.5 1.13 12.84 3.38 3.34 2.26 5.35 5.36 6.04 9.31h-7.81c-0.79-2.52-2.13-4.41-4.02-5.67 -1.89-1.26-4.34-1.89-7.35-1.89 -4.57 0-8.13 1.34-10.68 4.03 -2.55 2.69-3.83 6.43-3.83 11.21 0 4.74 1.28 8.48 3.85 11.21s6.04 4.11 10.43 4.11c3.44 0 6.2-0.79 8.27-2.38C1457.35 1219.42 1458.46 1217.23 1458.61 1214.44z"/><path fill="#00090D" d="M1559.78 1223.75c-0.08-1.46-0.11-3.02-0.11-4.68v-15.76c0-5.12-1.56-9.02-4.69-11.71s-7.65-4.03-13.56-4.03c-5.66 0-10.13 1.03-13.41 3.1s-5.06 4.96-5.34 8.69l7.94-0.04c0.23-2.13 1.23-3.74 3.01-4.85s4.26-1.65 7.44-1.65c3.78 0 6.58 0.83 8.4 2.49 1.82 1.66 2.75 4.23 2.78 7.7h-8.84c-8.42 0-14.5 1.03-18.24 3.1 -3.74 2.06-5.61 5.39-5.61 9.97 0 3.85 1.52 6.92 4.57 9.23s7.18 3.46 12.38 3.46c3.37 0 6.37-0.56 8.99-1.69 2.63-1.13 5.04-2.89 7.23-5.27l0.38 6.03h7.02C1559.97 1226.57 1559.85 1225.22 1559.78 1223.75zM1548.34 1219.82c-2.64 2.46-6.17 3.69-10.58 3.69 -3.27 0-5.85-0.68-7.75-2.04 -1.9-1.36-2.85-3.2-2.85-5.52 0-2.85 1.14-4.86 3.4-6.01s6.47-1.74 12.59-1.74h9.07c0.03 0.2 0.04 0.43 0.06 0.67s0.02 0.59 0.02 1.05C1552.3 1214.06 1550.98 1217.37 1548.34 1219.82z"/><path fill="#00090D" d="M1631.48 1178.13v10.38h11.38v5.25h-11.37v18.3c0 5.12 0.37 8.27 1.11 9.44s2.11 1.76 4.1 1.76c0.84 0 1.79-0.06 2.85-0.19 1.06-0.13 2.16-0.32 3.31-0.57v5.63c-1.35 0.2-2.65 0.36-3.88 0.47 -1.24 0.11-2.39 0.17-3.46 0.17 -4.34 0-7.35-0.83-9.05-2.48 -1.7-1.65-2.54-4.56-2.54-8.71v-23.81h-9.87v-5.25h9.88v-7.02L1631.48 1178.13z"/><rect x="1699.64" y="1171.44" fill="#00090D" width="7.5" height="8.13"/><rect x="1699.64" y="1188.51" fill="#00090D" width="7.5" height="39.31"/><path fill="#00090D" d="M1804.39 1192.99c-4.01-3.62-9.62-5.43-16.83-5.43s-12.82 1.81-16.83 5.43c-4.01 3.62-6.02 8.67-6.02 15.17 0 6.5 2.01 11.55 6.02 15.17 4.01 3.62 9.62 5.43 16.83 5.43s12.82-1.81 16.83-5.42c4.01-3.62 6.02-8.67 6.02-15.17C1810.41 1201.67 1808.4 1196.61 1804.39 1192.99zM1798.52 1219.06c-2.84 2.84-6.49 4.26-10.95 4.26s-8.1-1.41-10.93-4.24c-2.83-2.82-4.24-6.46-4.24-10.91 0-4.45 1.41-8.1 4.24-10.95 2.83-2.85 6.47-4.27 10.93-4.27 4.43 0 8.07 1.43 10.93 4.27 2.85 2.85 4.28 6.5 4.28 10.95C1802.78 1212.6 1801.36 1216.23 1798.52 1219.06z"/><path fill="#00090D" d="M1867.86 1227.82v-26.63c0-1.65-0.06-3.56-0.17-5.71s-0.26-4.47-0.46-6.97h7.49l0.46 6.79c1.94-2.64 4.27-4.58 7-5.81s6.1-1.85 10.1-1.85c5.86 0 10.25 1.41 13.16 4.22 2.91 2.81 4.36 7.05 4.36 12.7v23.27h-7.5v-22.12c0-4.41-0.96-7.65-2.87-9.72s-4.9-3.1-8.95-3.1c-4.54 0-8.17 1.2-10.9 3.6s-4.09 5.61-4.09 9.64v21.7H1867.86z"/><path fill="#00090D" d="M2099.45 1187.1c-1.48-3.53-3.69-6.6-6.65-9.23 -2.57-2.27-5.72-3.9-9.44-4.91 -3.72-1.01-8.61-1.51-14.67-1.51h-22.71v56.38h24.36c5.88 0 10.67-0.65 14.37-1.97s6.92-3.45 9.67-6.4c2.42-2.62 4.24-5.63 5.46-9.02s1.83-7.15 1.83-11.27C2101.66 1194.65 2100.92 1190.63 2099.45 1187.1zM2091.34 1208.99c-1.01 2.73-2.51 5.1-4.52 7.11 -1.86 1.84-4.17 3.15-6.95 3.92s-6.73 1.17-11.87 1.17h-13.78v-43.19h12.82c5.34 0 9.38 0.38 12.12 1.13s5.11 2 7.12 3.73c2.11 1.81 3.73 4.16 4.87 7.06 1.13 2.9 1.7 6.17 1.7 9.81C2092.85 1203.18 2092.35 1206.26 2091.34 1208.99z"/><path fill="#00090D" d="M2192.92 1192.81c-3.5-3.49-8.5-5.24-15-5.24 -6.85 0-12.28 1.9-16.3 5.7s-6.02 8.92-6.02 15.36c0 6.24 1.89 11.15 5.68 14.72 3.78 3.57 8.99 5.35 15.61 5.35 6.17 0 10.94-1.08 14.33-3.23s5.45-5.41 6.19-9.77h-8.06c-0.41 2.48-1.64 4.4-3.71 5.76 -2.06 1.37-4.76 2.05-8.1 2.05 -4.51 0-7.99-1.18-10.45-3.56 -2.46-2.37-3.73-5.75-3.8-10.13h34.8c0-0.23 0.01-0.57 0.04-1.01s0.04-0.78 0.04-1.01C2198.17 1201.29 2196.42 1196.3 2192.92 1192.81zM2190.42 1205.07h-26.82c0.2-3.81 1.52-6.84 3.95-9.08s5.59-3.36 9.48-3.36c4.2 0 7.48 1.05 9.84 3.15s3.55 5.02 3.55 8.75V1205.07z"/><polygon fill="#00090D" points="2267.36 1227.82 2247.48 1188.51 2255.85 1188.51 2272.06 1221.7 2288.76 1188.51 2296.48 1188.51 2276.53 1227.82 "/><path fill="#00090D" d="M2384.02 1192.81c-3.5-3.49-8.5-5.24-15-5.24 -6.85 0-12.28 1.9-16.3 5.7s-6.02 8.92-6.02 15.36c0 6.24 1.89 11.15 5.68 14.72 3.78 3.57 8.99 5.35 15.61 5.35 6.17 0 10.94-1.08 14.33-3.23s5.45-5.41 6.19-9.77h-8.06c-0.41 2.48-1.64 4.4-3.71 5.76 -2.06 1.37-4.76 2.05-8.1 2.05 -4.51 0-7.99-1.18-10.45-3.56 -2.46-2.37-3.73-5.75-3.8-10.13h34.8c0-0.23 0.01-0.57 0.04-1.01s0.04-0.78 0.04-1.01C2389.27 1201.29 2387.52 1196.3 2384.02 1192.81zM2381.52 1205.07h-26.82c0.2-3.81 1.52-6.84 3.95-9.08s5.59-3.36 9.48-3.36c4.2 0 7.48 1.05 9.84 3.15s3.55 5.02 3.55 8.75V1205.07z"/><rect x="2446.02" y="1171.44" fill="#00090D" width="7.5" height="56.38"/><path fill="#00090D" d="M2550.98 1192.99c-4.01-3.62-9.62-5.43-16.83-5.43s-12.82 1.81-16.83 5.43c-4.01 3.62-6.02 8.67-6.02 15.17 0 6.5 2.01 11.55 6.02 15.17 4.01 3.62 9.62 5.43 16.83 5.43s12.82-1.81 16.83-5.42c4.01-3.62 6.02-8.67 6.02-15.17C2556.99 1201.67 2554.99 1196.61 2550.98 1192.99zM2545.11 1219.06c-2.84 2.84-6.49 4.26-10.95 4.26s-8.1-1.41-10.93-4.24c-2.83-2.82-4.24-6.46-4.24-10.91 0-4.45 1.41-8.1 4.24-10.95 2.83-2.85 6.47-4.27 10.93-4.27 4.43 0 8.07 1.43 10.93 4.27 2.85 2.85 4.28 6.5 4.28 10.95C2549.37 1212.6 2547.95 1216.23 2545.11 1219.06z"/><path fill="#00090D" d="M2653.39 1193.17c-3.78-3.73-8.89-5.6-15.31-5.6 -3.44 0-6.5 0.58-9.17 1.74s-5.02 2.91-7.03 5.26l-0.46-6h-7.73c0.23 1.58 0.4 3.24 0.52 4.96 0.11 1.73 0.17 3.79 0.17 6.19v42.97h7.5v-20.3c2.22 2.15 4.65 3.75 7.3 4.8 2.65 1.05 5.57 1.57 8.75 1.57 6.45 0 11.58-1.86 15.4-5.58s5.73-8.7 5.73-14.94C2659.07 1201.92 2657.17 1196.9 2653.39 1193.17zM2647.42 1219.32c-2.64 2.71-6.27 4.06-10.91 4.06 -4.74 0-8.44-1.36-11.1-4.08 -2.66-2.72-3.99-6.51-3.99-11.37 0-4.48 1.39-8.08 4.17-10.82 2.78-2.73 6.42-4.1 10.93-4.1 4.66 0 8.31 1.33 10.93 3.99s3.94 6.35 3.94 11.09C2651.38 1212.86 2650.06 1216.61 2647.42 1219.32z"/><path fill="#00090D" d="M2724.02 1195.29c1.61-2.49 3.66-4.39 6.16-5.7s5.36-1.96 8.57-1.96c3.83 0 7.06 0.73 9.7 2.17 2.64 1.45 4.64 3.6 5.99 6.44 2.17-3 4.56-5.18 7.19-6.56 2.63-1.37 5.71-2.06 9.26-2.06 5.28 0 9.38 1.41 12.3 4.22s4.38 6.75 4.38 11.82v24.15h-7.44v-22.12c0-4.23-0.9-7.43-2.69-9.59 -1.8-2.15-4.45-3.23-7.97-3.23 -3.98 0-7.21 1.23-9.71 3.69s-3.75 5.65-3.75 9.55v21.7h-7.5v-22.12c0-4.23-0.9-7.43-2.7-9.59 -1.8-2.15-4.45-3.23-7.95-3.23 -3.99 0-7.24 1.23-9.76 3.69s-3.77 5.65-3.77 9.55v21.7h-7.62v-26.63c0-1.65-0.06-3.56-0.17-5.71s-0.26-4.47-0.46-6.97h7.49L2724.02 1195.29z"/><path fill="#00090D" d="M2881.78 1192.81c-3.5-3.49-8.5-5.24-15-5.24 -6.85 0-12.28 1.9-16.3 5.7s-6.02 8.92-6.02 15.36c0 6.24 1.89 11.15 5.68 14.72 3.78 3.57 8.99 5.35 15.61 5.35 6.17 0 10.94-1.08 14.33-3.23s5.45-5.41 6.19-9.77h-8.06c-0.41 2.48-1.64 4.4-3.71 5.76 -2.06 1.37-4.76 2.05-8.1 2.05 -4.51 0-7.99-1.18-10.45-3.56 -2.46-2.37-3.73-5.75-3.8-10.13h34.8c0-0.23 0.01-0.57 0.04-1.01s0.04-0.78 0.04-1.01C2887.03 1201.29 2885.28 1196.3 2881.78 1192.81zM2879.28 1205.07h-26.82c0.2-3.81 1.52-6.84 3.95-9.08s5.59-3.36 9.48-3.36c4.2 0 7.48 1.05 9.84 3.15s3.55 5.02 3.55 8.75V1205.07z"/><path fill="#00090D" d="M2943.66 1227.82v-26.63c0-1.65-0.06-3.56-0.17-5.71s-0.26-4.47-0.46-6.97h7.49l0.46 6.79c1.94-2.64 4.27-4.58 7-5.81s6.1-1.85 10.1-1.85c5.86 0 10.25 1.41 13.16 4.22 2.91 2.81 4.36 7.05 4.36 12.7v23.27h-7.5v-22.12c0-4.41-0.96-7.65-2.87-9.72s-4.9-3.1-8.95-3.1c-4.54 0-8.17 1.2-10.9 3.6s-4.09 5.61-4.09 9.64v21.7H2943.66z"/><path fill="#00090D" d="M3057.52 1178.13v10.38h11.38v5.25h-11.37v18.3c0 5.12 0.37 8.27 1.11 9.44s2.11 1.76 4.1 1.76c0.84 0 1.79-0.06 2.85-0.19 1.06-0.13 2.16-0.32 3.31-0.57v5.63c-1.35 0.2-2.65 0.36-3.88 0.47 -1.24 0.11-2.39 0.17-3.46 0.17 -4.34 0-7.35-0.83-9.05-2.48 -1.7-1.65-2.54-4.56-2.54-8.71v-23.81h-9.87v-5.25h9.88v-7.02L3057.52 1178.13z"/></svg>